<svg width="857" height="99" viewBox="0 0 857 99" fill="none" xmlns="http://www.w3.org/2000/svg">
    <path d="M91.536 37.096C91.536 45.032 88.464 51.816 82.32 57.448C76.2613 62.9947 69.008 65.768 60.56 65.768H22.544V97H0.4V7.39999H61.712C71.2693 7.39999 78.8213 10.6853 84.368 17.256C89.1467 22.9733 91.536 29.5867 91.536 37.096ZM66.576 35.944C66.576 32.104 64.9973 28.904 61.84 26.344C58.6827 23.784 55.056 22.504 50.96 22.504H22.416V50.28H51.6C55.7813 50.28 59.3227 48.9147 62.224 46.184C65.1253 43.4533 66.576 40.04 66.576 35.944ZM195.343 52.072C195.343 69.48 190.522 81.9387 180.879 89.448C173.028 95.5067 161.594 98.536 146.575 98.536C129.935 98.536 117.647 95.0373 109.711 88.04C101.007 80.36 96.655 68.0293 96.655 51.048C96.655 37.1387 100.538 26.3013 108.303 18.536C116.751 10.088 129.38 5.864 146.191 5.864C164.708 5.864 177.764 9.91733 185.359 18.024C192.015 25.192 195.343 36.5413 195.343 52.072ZM172.559 51.56C172.559 42.7707 170.468 35.7733 166.287 30.568C161.594 24.7653 154.639 21.864 145.423 21.864C136.378 21.864 129.551 24.9787 124.943 31.208C121.103 36.4133 119.183 43.1973 119.183 51.56C119.183 61.2027 120.719 68.328 123.791 72.936C128.058 79.336 135.951 82.536 147.471 82.536C157.199 82.536 164.026 79.4213 167.951 73.192C171.023 68.328 172.559 61.1173 172.559 51.56ZM296.982 97H271.766L248.598 62.056H224.534V97H203.03V7.39999H268.566C275.99 7.39999 282.134 10.3013 286.998 16.104C291.862 21.8213 294.294 28.6053 294.294 36.456C294.294 42.6853 292.203 47.976 288.022 52.328C283.841 56.68 278.55 59.4107 272.15 60.52L296.982 97ZM268.438 35.56C268.438 31.3787 266.859 28.1787 263.702 25.96C260.63 23.656 256.449 22.504 251.158 22.504H224.278V47.592H251.798C255.809 47.592 259.393 46.696 262.55 44.904C266.475 42.6853 268.438 39.5707 268.438 35.56ZM378.848 22.888H345.44V97.256H324.704V22.888H291.808V7.656H378.848V22.888ZM469.953 97H447.553L440.001 76.52H403.009L394.945 97H372.801L409.537 7.39999H431.425L469.953 97ZM433.089 60.904L420.929 29.416L409.153 60.904H433.089ZM543.959 97H511.575C502.103 97 494.508 95.9333 488.791 93.8C481.538 91.0693 476.332 86.376 473.175 79.72C471.98 77.16 471.127 74.728 470.615 72.424C470.188 70.0347 469.975 67.304 469.975 64.232V7.39999H493.015V63.464C493.015 66.024 493.314 68.2853 493.911 70.248C494.508 72.1253 495.575 74.0027 497.111 75.88C499.244 78.6107 501.719 80.4027 504.535 81.256C507.351 82.1093 510.935 82.536 515.287 82.536H543.959V97Z" fill="white"/>
    <path d="M738.682 27.7017C738.682 26.8545 739.12 26.4309 739.995 26.4309H749.837C750.712 26.4309 751.15 26.8545 751.15 27.7017V89.8398C751.15 90.6869 750.712 91.1105 749.837 91.1105H739.995C739.12 91.1105 738.682 90.6869 738.682 89.8398V85.1381C738.682 84.9687 738.595 84.884 738.42 84.884C738.333 84.7993 738.201 84.8416 738.026 85.011C734.527 89.6703 729.146 92 721.885 92C717.598 92 713.617 91.1952 709.942 89.5856C706.355 87.9761 703.468 85.604 701.281 82.4696C699.094 79.3352 698 75.523 698 71.0331V27.7017C698 26.8545 698.437 26.4309 699.312 26.4309H709.155C710.03 26.4309 710.467 26.8545 710.467 27.7017V67.221C710.467 71.6261 711.648 75.0994 714.011 77.6409C716.46 80.1823 719.872 81.453 724.247 81.453C728.621 81.453 732.121 80.1823 734.745 77.6409C737.37 75.0147 738.682 71.5414 738.682 67.221V27.7017Z" fill="#FD7FF8"/>
    <path d="M768.221 91.1105C767.346 91.1105 766.909 90.6869 766.909 89.8398V3.43093C766.909 2.58379 767.346 2.16022 768.221 2.16022H778.195C779.07 2.16022 779.507 2.58379 779.507 3.43093V89.8398C779.507 90.6869 779.07 91.1105 778.195 91.1105H768.221Z" fill="#FD7FF8"/>
    <path d="M828.11 35.1989C828.11 36.046 827.673 36.4696 826.798 36.4696H812.625C812.275 36.4696 812.1 36.639 812.1 36.9779V70.6519C812.1 74.2099 812.931 76.7937 814.593 78.4033C816.255 79.9282 818.836 80.6906 822.336 80.6906H826.142C827.016 80.6906 827.454 81.1142 827.454 81.9613V89.8398C827.454 90.6869 827.016 91.1105 826.142 91.1105C823.342 91.2799 821.33 91.3646 820.105 91.3646C813.456 91.3646 808.425 90.221 805.013 87.9337C801.688 85.5617 800.026 81.2412 800.026 74.9724V36.9779C800.026 36.639 799.851 36.4696 799.501 36.4696H791.496C790.621 36.4696 790.184 36.046 790.184 35.1989V27.7017C790.184 26.8545 790.621 26.4309 791.496 26.4309H799.501C799.851 26.4309 800.026 26.2615 800.026 25.9226V10.9282C800.026 10.081 800.464 9.65745 801.338 9.65745H810.787C811.662 9.65745 812.1 10.081 812.1 10.9282V25.9226C812.1 26.2615 812.275 26.4309 812.625 26.4309H826.798C827.673 26.4309 828.11 26.8545 828.11 27.7017V35.1989Z" fill="#FD7FF8"/>
    <path d="M848.601 16.2652C846.151 16.2652 844.139 15.5028 842.564 13.9779C840.989 12.453 840.202 10.5046 840.202 8.13259C840.202 5.76058 840.989 3.81215 842.564 2.28729C844.139 0.762429 846.151 0 848.601 0C851.051 0 853.063 0.762429 854.638 2.28729C856.213 3.81215 857 5.76058 857 8.13259C857 10.5046 856.213 12.453 854.638 13.9779C853.063 15.5028 851.051 16.2652 848.601 16.2652ZM843.352 90.9834C842.477 90.9834 842.039 90.5599 842.039 89.7127V27.7017C842.039 26.8545 842.477 26.4309 843.352 26.4309H853.325C854.2 26.4309 854.638 26.8545 854.638 27.7017V89.7127C854.638 90.5599 854.2 90.9834 853.325 90.9834H843.352Z" fill="#FD7FF8"/>
    <path d="M649.202 8.96C649.677 8.32 650.341 8 651.195 8H664.292C664.766 8 665.146 8.16 665.431 8.48C665.81 8.72 666 9.04 666 9.44V90.56C666 90.96 665.81 91.32 665.431 91.64C665.146 91.88 664.766 92 664.292 92H651.195C650.721 92 650.294 91.88 649.914 91.64C649.629 91.32 649.487 90.96 649.487 90.56V33.32C649.487 33.08 649.344 32.92 649.06 32.84C648.87 32.76 648.728 32.84 648.633 33.08L630.838 56.12C630.364 56.76 629.699 57.08 628.845 57.08H622.297C621.443 57.08 620.779 56.76 620.304 56.12L602.367 33.2C602.272 32.96 602.083 32.88 601.798 32.96C601.608 33.04 601.513 33.2 601.513 33.44V90.56C601.513 90.96 601.323 91.32 600.944 91.64C600.659 91.88 600.279 92 599.805 92H586.708C586.234 92 585.807 91.88 585.427 91.64C585.142 91.32 585 90.96 585 90.56V9.44C585 9.04 585.142 8.72 585.427 8.48C585.807 8.16 586.234 8 586.708 8H599.805C600.659 8 601.323 8.32 601.798 8.96L625.002 38.6C625.192 38.76 625.381 38.84 625.571 38.84C625.761 38.84 625.903 38.76 625.998 38.6L649.202 8.96Z" fill="#FD7FF8"/>
    <path d="M689.061 84.9497C689.059 85.1057 688.989 85.209 688.85 85.2598L671.094 90.661L670.989 90.686C670.868 90.6849 670.808 90.6063 670.809 90.4503L670.829 88.3444C670.83 88.1884 670.901 88.0851 671.04 88.0344L685.456 83.8765C685.491 83.8595 685.509 83.8337 685.509 83.799C685.509 83.7644 685.492 83.7382 685.458 83.7205L671.12 79.2987C670.982 79.2455 670.913 79.1495 670.914 79.0108L670.933 76.9569C670.935 76.7663 671.031 76.6978 671.221 76.7515L688.875 82.5299C689.013 82.5831 689.082 82.6878 689.08 82.8438L689.061 84.9497Z" fill="#4E69F7"/>
    <path d="M672.983 60.4171C673.157 60.4187 673.242 60.5061 673.241 60.6795L673.156 69.9091C673.156 69.9784 673.19 70.0134 673.259 70.014L678.849 70.0654C678.918 70.066 678.953 70.0317 678.954 69.9623L679.012 63.6186C679.014 63.4453 679.101 63.3594 679.275 63.361L680.912 63.376C681.086 63.3776 681.172 63.4651 681.17 63.6384L681.112 69.9821C681.111 70.0515 681.146 70.0864 681.215 70.0871L686.935 70.1396C687.004 70.1402 687.039 70.1059 687.04 70.0366L687.124 60.8069C687.126 60.6336 687.213 60.5477 687.387 60.5493L689.025 60.5644C689.198 60.566 689.284 60.6534 689.282 60.8268L689.176 72.3963C689.174 72.5696 689.087 72.6555 688.914 72.6539L671.234 72.4916C671.061 72.49 670.975 72.4025 670.977 72.2292L671.083 60.6597C671.085 60.4863 671.172 60.4005 671.345 60.4021L672.983 60.4171Z" fill="#4E69F7"/>
    <path d="M689.426 45.1843C689.425 45.323 689.363 45.4178 689.241 45.4687L681.434 49.0371C681.382 49.054 681.356 49.0884 681.355 49.1404L681.321 52.8843C681.32 52.9536 681.355 52.9886 681.424 52.9892L689.094 53.0596C689.267 53.0612 689.353 53.1487 689.351 53.322L689.333 55.2979C689.331 55.4712 689.244 55.5571 689.071 55.5555L671.391 55.3932C671.218 55.3916 671.132 55.3042 671.134 55.1308L671.198 48.1371C671.207 47.0972 671.433 46.1892 671.873 45.4132C672.314 44.6199 672.926 44.0102 673.71 43.584C674.494 43.1578 675.397 42.9495 676.42 42.9589C677.633 42.97 678.661 43.3001 679.505 43.9492C680.331 44.5808 680.886 45.4613 681.171 46.5906C681.205 46.6603 681.248 46.678 681.3 46.6438L689.134 42.9456C689.169 42.9286 689.213 42.9203 689.265 42.9208C689.386 42.9219 689.446 42.9918 689.445 43.1304L689.426 45.1843ZM673.313 52.8107C673.312 52.8801 673.347 52.9151 673.416 52.9157L679.24 52.9692C679.309 52.9698 679.344 52.9355 679.345 52.8661L679.385 48.5243C679.393 47.6057 679.131 46.8666 678.599 46.307C678.05 45.7473 677.324 45.4633 676.423 45.455C675.504 45.4466 674.765 45.7171 674.205 46.2667C673.646 46.8162 673.361 47.5503 673.353 48.4689L673.313 52.8107Z" fill="#4E69F7"/>
    <path d="M689.751 32.4395C689.739 33.7741 689.52 34.9335 689.095 35.9176C688.67 36.8844 688.074 37.633 687.306 38.1633C686.539 38.6763 685.644 38.9281 684.621 38.9187L683.867 38.9117C683.694 38.9101 683.608 38.8227 683.61 38.6494L683.627 36.7514C683.629 36.5781 683.716 36.4923 683.889 36.4938L684.513 36.4996C685.397 36.5077 686.129 36.1331 686.708 35.3757C687.287 34.6183 687.582 33.5723 687.595 32.2377C687.606 31.0417 687.363 30.1381 686.865 29.5269C686.368 28.9156 685.713 28.6062 684.898 28.5988C684.361 28.5938 683.9 28.7456 683.516 29.0541C683.131 29.3626 682.781 29.8187 682.463 30.4225C682.128 31.0088 681.73 31.8718 681.269 33.0116C680.772 34.2725 680.321 35.2737 679.916 36.0153C679.51 36.7397 678.985 37.3415 678.339 37.8209C677.676 38.3002 676.85 38.5353 675.862 38.5262C674.372 38.5126 673.207 37.9732 672.367 36.9081C671.528 35.8257 671.116 34.3745 671.133 32.5546C671.145 31.272 671.372 30.1473 671.814 29.1807C672.256 28.214 672.87 27.4743 673.654 26.9615C674.439 26.4313 675.343 26.1709 676.366 26.1803L676.886 26.1851C677.059 26.1867 677.145 26.2742 677.143 26.4475L677.125 28.3974C677.124 28.5707 677.036 28.6566 676.863 28.655L676.473 28.6514C675.572 28.6432 674.823 29.0003 674.227 29.7229C673.614 30.4279 673.302 31.4131 673.29 32.6784C673.28 33.753 673.498 34.587 673.943 35.1805C674.371 35.7738 675.001 36.0742 675.833 36.0819C676.405 36.0871 676.874 35.9441 677.241 35.6528C677.607 35.3615 677.941 34.9312 678.241 34.3619C678.523 33.7751 678.896 32.8858 679.357 31.694C679.854 30.4679 680.314 29.4754 680.737 28.7166C681.142 27.9576 681.685 27.3299 682.366 26.8334C683.029 26.3368 683.855 26.0931 684.843 26.1022C686.368 26.1162 687.576 26.6906 688.467 27.8255C689.341 28.9429 689.769 30.4809 689.751 32.4395Z" fill="#4E69F7"/>
    <path d="M673.456 8.96974C673.629 8.97133 673.715 9.05879 673.713 9.23212L673.628 18.4617C673.628 18.5311 673.662 18.566 673.732 18.5667L679.321 18.618C679.391 18.6186 679.426 18.5843 679.426 18.515L679.484 12.1712C679.486 11.9979 679.574 11.912 679.747 11.9136L681.385 11.9287C681.558 11.9303 681.644 12.0177 681.642 12.191L681.584 18.5348C681.584 18.6041 681.618 18.6391 681.687 18.6397L687.407 18.6922C687.476 18.6929 687.511 18.6585 687.512 18.5892L687.597 9.35958C687.598 9.18625 687.686 9.10038 687.859 9.10198L689.497 9.11701C689.67 9.1186 689.756 9.20606 689.755 9.37939L689.648 20.9489C689.647 21.1222 689.559 21.2081 689.386 21.2065L671.707 21.0442C671.533 21.0426 671.447 20.9551 671.449 20.7818L671.555 9.21231C671.557 9.03898 671.644 8.95311 671.818 8.9547L673.456 8.96974Z" fill="#4E69F7"/>
</svg>
